<?xml version="1.0" encoding="UTF-8"?>
<!-- Generator: Adobe Illustrator 27.5.0, SVG Export Plug-In . SVG Version: 6.00 Build 0)  -->
<svg width="1594.8" height="1909" version="1.1" viewBox="0 0 1594.8 1909" xml:space="preserve" xmlns="http://www.w3.org/2000/svg">

<g transform="translate(-1203.4 -876.34)"><g fill="#231916"><path d="m2631.7 2031.1c-11.335 142.22-5.634 247.94 144.49 429.55l-297.28 191.77-35.793-53.83 164.53-140.46c-58.001-30.261-96.264-84.065-126.24-153.47 44.855-93.985 102.5-181.26 150.3-273.56"/><path d="m2021.7 2263.6c-53.321 75.144-137.46 174.02-247.72 241.57l-45.748 280.2h-95.871l-76.169-315.45c82.598-68.403 154.77-155.92 210.19-245.06 72.414 30.156 166.64 39.631 255.32 38.74"/><path d="m1944.9 1826.2s78.468-15.885 139.42-65.449c-118.11 18.22-262.98-13.776-400.74-44.231-72.734-16.072-143.37-31.69-204.64-38.275-81.663-8.764-147.6-0.976-180.35 47.022 54.613-9.318 98.987 12.058 99.172 12.141l39.253 18.728-28.451 32.703c-205 235.63 163.28 395.92-64.54 655.99l18.935 155.1 20.89-147.46c175.19-101.08 259.84-336.03 342.48-510.85l25.485 86.727c112.65 86.428 398.88 48.896 399.7 48.776l3.987-112.33c138.95 183.94 99.903 449.86 149.51 533.7-83.554-475.29 564.54-508.79 196.18-1192l-23.003-42.608 48.105-5.735c21.544-2.569 37.824-9.264 49.995-17.141-148.51-18.553-268.86-71.008-288.27-79.804l-34.002-8.576-257.8 181.27c5.643 21.417 6.49 20.898 6.493 20.898l62.167 1.869 7.306 4.284c46.204 27.118 59.496 65.216 60.145 98.898 19.101-25.917 15.557-59.693 15.542-59.845l-4.209-41.326 41.25 5.367c247.48 32.244 156.74 473.02-240 462.13m-619.86-37.641c-17.951 0.445-39.228 5.673-59.682 22.179l-61.961 49.995 8.502-79.144c16.81-156.52 126.65-184.68 273.98-168.87 65.426 7.022 137.54 22.972 211.8 39.387 238.14 52.641 500.22 110.56 557.36-138.19 0.737-9.385 1.709-54.091-44.109-75.057-7.728 42.916-34.246 102.48-120.86 114.39l-62.296 8.563 28.363-56.064c0.08-0.159 28.019-54.049-11.03-83.67l-47.824-1.361c-0.131-0.012-48.294-1.991-70.532-92.969l-5.323-21.752 319.58-224.7 69.309 17.49 2.664 1.242c0.442 0.203 152.2 71.784 329.1 80.685l44.289 2.229-14.855 41.656c-0.075 0.207-21.471 62.155-93.8 88.715 386.11 700.05-323.69 824.98-183.25 1472.1h-106.72c-40.124-144.26-116.16-547.78-128.99-559.59-54.78 6.955-275.54 29.603-403.49-37.42-39.061 66.282-142.26 222.24-296.6 316.81l-45.748 280.2h-95.869l-80.794-334.6 12.354-13.081c101.18-107.16 73.889-201.08 45.677-298.19-31.008-106.72-62.958-216.74 30.748-350.97z"/><path d="m2079.4 1196 384.24-270.15c88.584-62.286 175.71-58.838 238.66-28.055 54.399 26.591 105.77 83.045 94.349 147.66-20.099 113.74-201.51 158.21-237.33 44.795-18.655-59.031 46.652-124.44 121.47-48.102-31.581-11.505-67.508-0.465-58.449 28.21 20.442 64.768 200.61-40.284 51.025-113.41-44.088-21.563-106.36-23.097-171.76 22.887l-384.25 270.16z"/></g></g></svg>
