<?xml version="1.0" encoding="UTF-8"?>
<svg width="106" height="106" version="1.1" xmlns="http://www.w3.org/2000/svg" xmlns:xlink="http://www.w3.org/1999/xlink">
 <g id="logo" transform="translate(53 53)">
  <path id="r" transform="translate(.5 .5)" d="m-9-15h13c8 0 8 8 0 8h-13zm-31 37h40v-11h-9v-8h10c11 0 5 19 14 19h25v-19h-6v2c0 8-9 7-10 2s-5-9-6-9c15-8 6-24-6-24h-47v11h10v26h-15z" stroke="#000" stroke-linejoin="round"/>
  <g id="gear" mask="url(#holes)">
   <circle r="43" fill="none" stroke="#000" stroke-width="9"/>
   <g id="cogs">
    <polygon id="cog" points="46 3 51 0 46 -3" stroke="#000" stroke-linejoin="round" stroke-width="3"/>
    <use transform="rotate(11.25)" xlink:href="#cog"/>
    <use transform="rotate(22.5)" xlink:href="#cog"/>
    <use transform="rotate(33.75)" xlink:href="#cog"/>
    <use transform="rotate(45)" xlink:href="#cog"/>
    <use transform="rotate(56.25)" xlink:href="#cog"/>
    <use transform="rotate(67.5)" xlink:href="#cog"/>
    <use transform="rotate(78.75)" xlink:href="#cog"/>
    <use transform="rotate(90)" xlink:href="#cog"/>
    <use transform="rotate(101.25)" xlink:href="#cog"/>
    <use transform="rotate(112.5)" xlink:href="#cog"/>
    <use transform="rotate(123.75)" xlink:href="#cog"/>
    <use transform="rotate(135)" xlink:href="#cog"/>
    <use transform="rotate(146.25)" xlink:href="#cog"/>
    <use transform="rotate(157.5)" xlink:href="#cog"/>
    <use transform="rotate(168.75)" xlink:href="#cog"/>
    <use transform="rotate(180)" xlink:href="#cog"/>
    <use transform="rotate(191.25)" xlink:href="#cog"/>
    <use transform="rotate(202.5)" xlink:href="#cog"/>
    <use transform="rotate(213.75)" xlink:href="#cog"/>
    <use transform="rotate(225)" xlink:href="#cog"/>
    <use transform="rotate(236.25)" xlink:href="#cog"/>
    <use transform="rotate(247.5)" xlink:href="#cog"/>
    <use transform="rotate(258.75)" xlink:href="#cog"/>
    <use transform="rotate(-90)" xlink:href="#cog"/>
    <use transform="rotate(281.25)" xlink:href="#cog"/>
    <use transform="rotate(-67.5)" xlink:href="#cog"/>
    <use transform="rotate(303.75)" xlink:href="#cog"/>
    <use transform="rotate(-45)" xlink:href="#cog"/>
    <use transform="rotate(326.25)" xlink:href="#cog"/>
    <use transform="rotate(-22.5)" xlink:href="#cog"/>
    <use transform="rotate(348.75)" xlink:href="#cog"/>
   </g>
   <g id="mounts">
    <polygon id="mount" points="-7 -42 0 -35 7 -42" stroke="#000" stroke-linejoin="round" stroke-width="6"/>
    <use transform="rotate(72)" xlink:href="#mount"/>
    <use transform="rotate(144)" xlink:href="#mount"/>
    <use transform="rotate(216)" xlink:href="#mount"/>
    <use transform="rotate(288)" xlink:href="#mount"/>
   </g>
  </g>
  <mask id="holes">
   <rect x="-60" y="-60" width="120" height="120" fill="#fff"/>
   <circle id="hole" cy="-40" r="3"/>
   <use transform="rotate(72)" xlink:href="#hole"/>
   <use transform="rotate(144)" xlink:href="#hole"/>
   <use transform="rotate(216)" xlink:href="#hole"/>
   <use transform="rotate(288)" xlink:href="#hole"/>
  </mask>
 </g>
</svg>
